<?xml version="1.0" encoding="utf-8"?>
<!-- Generator: Adobe Illustrator 24.3.0, SVG Export Plug-In . SVG Version: 6.00 Build 0)  -->
<svg version="1.1" xmlns="http://www.w3.org/2000/svg" xmlns:xlink="http://www.w3.org/1999/xlink" x="0px" y="0px"
	 viewBox="0 0 64 64" style="enable-background:new 0 0 64 64;" xml:space="preserve">
<style type="text/css">
	.st0{display:none;}
	.st1{display:inline;fill:#4C4C4C;}
	.st2{display:inline;}
	.st3{fill:none;stroke:#FFFFFF;stroke-width:3;stroke-miterlimit:10;}
	.st4{fill:#FFFFFF;}
</style>
<g id="Layer_2" class="st0">
	<rect x="-15.5" y="-9" class="st1" width="91.8" height="82.1"/>
</g>
<g id="Layer_1">
</g>
<g id="Layer_5" class="st0">
	<g id="Layer_1_1_" class="st2">
		<g>
			<path class="st3" d="M43.3,16.9L31.6,32.8L21.3,15.5L3.1,40.2L7,44.9l17.9,10.1l18.4-26.8l14.2,22.4l2.8-5.2L43.3,16.9z
				 M19.8,48.9l11.8-16.1L19.8,48.9L3.1,40.2"/>
		</g>
		<line class="st3" x1="19.8" y1="48.9" x2="24.9" y2="54.8"/>
	</g>
	<g id="Layer_3_1_" class="st2">
		<g>
			<g>
				<path class="st4" d="M43.2,41.6l5,7.5L37,50.9L43.2,41.6 M43.2,36.2L30.8,54.8l22.4-3.4L43.2,36.2L43.2,36.2z"/>
			</g>
		</g>
	</g>
</g>
<g id="Layer_4">
	<path class="st4" d="M41.6,25.4l8.1-8.1l-3-3l-8.1,8.1L41.6,25.4z M54,17.3c0,0.5-0.2,0.9-0.5,1.2L17.8,54.2
		c-0.3,0.3-0.7,0.5-1.2,0.5s-0.9-0.2-1.2-0.5l-5.5-5.5c-0.3-0.3-0.5-0.8-0.5-1.2c0-0.5,0.2-0.9,0.5-1.3l35.7-35.7
		c0.3-0.3,0.8-0.5,1.3-0.5s0.9,0.2,1.2,0.5l5.5,5.5C53.8,16.4,54,16.8,54,17.3L54,17.3z M16.5,12l2.7,0.8l-2.7,0.8l-0.8,2.7
		l-0.8-2.7l-2.7-0.8l2.7-0.8l0.8-2.7L16.5,12z M26.2,16.5l5.4,1.7l-5.4,1.7l-1.7,5.4l-1.7-5.4l-5.4-1.7l5.4-1.7l1.7-5.4L26.2,16.5z
		 M52,29.8l2.7,0.8L52,31.4l-0.8,2.7l-0.8-2.7l-2.7-0.8l2.7-0.8l0.8-2.7L52,29.8z M34.2,12l2.7,0.8l-2.7,0.8l-0.8,2.7l-0.8-2.7
		l-2.7-0.8l2.7-0.8l0.8-2.7L34.2,12z"/>
</g>
</svg>
