<?xml version="1.0" encoding="utf-8"?>
<!-- Generator: Adobe Illustrator 24.3.0, SVG Export Plug-In . SVG Version: 6.00 Build 0)  -->
<svg version="1.1" xmlns="http://www.w3.org/2000/svg" xmlns:xlink="http://www.w3.org/1999/xlink" x="0px" y="0px"
	 viewBox="0 0 64 64" style="enable-background:new 0 0 64 64;" xml:space="preserve">
<style type="text/css">
	.st0{display:none;}
	.st1{display:inline;fill:#4C4C4C;}
	.st2{fill:#FFFFFF;}
	.st3{display:inline;}
	.st4{fill:none;stroke:#FFFFFF;stroke-width:2;stroke-miterlimit:10;}
</style>
<g id="Layer_2" class="st0">
	<rect x="-15.5" y="-9" class="st1" width="91.8" height="82.1"/>
</g>
<g id="Layer_1" class="st0">
</g>
<g id="Layer_3">
	<g>
		<polygon class="st2" points="44.2,15.5 20.5,14 1,40.6 5.2,45.5 24.4,56.3 44.2,27.6 59.5,51.6 62.5,46 		"/>
		<g>
			<polygon class="st2" points="44,34.3 54.8,50.5 30.6,54.3 			"/>
			<path class="st2" d="M44,36.1l9.1,13.7L32.7,53L44,36.1 M44,32.5L28.5,55.6l27.9-4.3L44,32.5L44,32.5z"/>
		</g>
	</g>
</g>
<g id="Layer_5" class="st0">
	<g id="Layer_1_1_" class="st3">
		<path class="st4" d="M44.2,15.5L31.6,32.6L20.5,14L1,40.6l4.2,5l19.2,10.8l19.8-28.8l15.3,24.1l3-5.6L44.2,15.5z"/>
		<polyline class="st4" points="24.4,56.4 18.9,49.9 1,40.6 18.9,49.9 31.6,32.6 		"/>
	</g>
	<g class="st3">
		<path class="st2" d="M44,36.1l9.1,13.7L32.7,53L44,36.1 M44,32.5L28.5,55.6l27.9-4.3L44,32.5L44,32.5z"/>
	</g>
</g>
<g id="Layer_6" class="st0">
</g>
</svg>
