<?xml version="1.0" encoding="utf-8"?>
<!-- Generator: Adobe Illustrator 24.3.0, SVG Export Plug-In . SVG Version: 6.00 Build 0)  -->
<svg version="1.1" id="Layer_1" xmlns="http://www.w3.org/2000/svg" xmlns:xlink="http://www.w3.org/1999/xlink" x="0px" y="0px"
	 viewBox="0 0 64 64" style="enable-background:new 0 0 64 64;" xml:space="preserve">
<style type="text/css">
	.st0{fill:#FFFFFF;}
</style>
<g>
	<path class="st0" d="M31.49,34.93c0.28,0.09,0.74,0.09,1.03,0l6.86-2.28c0.26-0.09,0.24-0.23-0.04-0.31l-6.86-2.07
		c-0.26-0.08-0.68-0.08-0.94,0l-6.86,2.07c-0.28,0.08-0.3,0.22-0.04,0.31L31.49,34.93z"/>
	<path class="st0" d="M34.85,36.05l7.81,2.6c0.32,0.11,0.82,0.11,1.1,0l6.8-2.6c0.25-0.1,0.2-0.26-0.12-0.35l-7.76-2.34
		c-0.29-0.09-0.74-0.09-1,0l-6.85,2.34C34.55,35.8,34.56,35.95,34.85,36.05z"/>
	<path class="st0" d="M63.11,39.53l-8.86-2.68c-0.33-0.1-0.81-0.1-1.06,0l-6.78,2.68c-0.28,0.11-0.24,0.29,0.1,0.4l8.98,2.99
		c0.37,0.12,0.9,0.12,1.18,0l6.66-2.99C63.58,39.82,63.48,39.64,63.11,39.53z"/>
	<path class="st0" d="M20.24,38.65c0.28,0.11,0.77,0.11,1.1,0l7.81-2.6c0.29-0.1,0.3-0.26,0.02-0.35l-6.85-2.34
		c-0.26-0.09-0.7-0.09-1,0l-7.76,2.34c-0.32,0.1-0.37,0.25-0.12,0.35L20.24,38.65z"/>
	<path class="st0" d="M31.47,36.85l-7.82,2.68c-0.32,0.11-0.35,0.29-0.06,0.4l7.82,2.99c0.32,0.12,0.85,0.12,1.18,0l7.82-2.99
		c0.29-0.11,0.27-0.29-0.06-0.4l-7.82-2.68C32.24,36.75,31.76,36.75,31.47,36.85z"/>
	<path class="st0" d="M44.21,40.84c-0.34-0.11-0.85-0.11-1.14,0l-7.81,3.08c-0.32,0.13-0.31,0.34,0.02,0.47l9.08,3.47
		c0.38,0.14,0.95,0.14,1.27,0l7.74-3.47c0.29-0.13,0.22-0.34-0.16-0.47L44.21,40.84z"/>
	<path class="st0" d="M17.59,39.53l-6.78-2.68c-0.25-0.1-0.73-0.1-1.06,0l-8.86,2.68c-0.37,0.11-0.46,0.29-0.21,0.4l6.66,2.99
		c0.28,0.12,0.81,0.12,1.18,0l8.98-2.99C17.82,39.82,17.87,39.64,17.59,39.53z"/>
	<path class="st0" d="M28.74,43.93l-7.81-3.08c-0.29-0.11-0.8-0.11-1.14,0l-9.01,3.08c-0.37,0.13-0.44,0.34-0.16,0.47l7.74,3.47
		c0.32,0.14,0.89,0.14,1.27,0l9.08-3.47C29.06,44.26,29.06,44.05,28.74,43.93z"/>
	<path class="st0" d="M32.61,45.45c-0.34-0.13-0.89-0.13-1.23,0l-9.09,3.59c-0.38,0.15-0.41,0.39-0.08,0.55l9.09,4.08
		c0.38,0.17,1,0.17,1.38,0l9.09-4.08c0.34-0.15,0.3-0.4-0.08-0.55L32.61,45.45z"/>
</g>
</svg>
